<svg width="204" height="72" viewBox="0 0 204 72" fill="none" xmlns="http://www.w3.org/2000/svg">
<g clip-path="url(#clip0_1_50)">
<rect width="204" height="72" rx="12" fill="#735EAB"/>
<path fill-rule="evenodd" clip-rule="evenodd" d="M42 21C50.2843 21 57 27.7157 57 36C57 44.2843 50.2843 51 42 51C33.7157 51 27 44.2843 27 36C27 27.7157 33.7157 21 42 21ZM40.2764 33.5644H34.154L39.1072 37.1633L37.2154 42.9862L42.1685 39.3872L47.1217 42.9862L45.2299 37.1633L50.183 33.5644H44.0607L42.1685 27.7416L40.2764 33.5644Z" fill="white"/>
<ellipse cx="129" cy="78" rx="81" ry="45" fill="#816EB4"/>
<path d="M86.18 31.3V34.8H90.88V37.02H86.18V40.72H91.48V43H83.38V29.02H91.48V31.3H86.18ZM109.245 29.04V43H106.445V33.92L102.705 43H100.585L96.8245 33.92V43H94.0245V29.04H97.2045L101.645 39.42L106.085 29.04H109.245ZM122.193 33.36C122.193 34.1067 122.013 34.8067 121.653 35.46C121.306 36.1133 120.753 36.64 119.993 37.04C119.246 37.44 118.299 37.64 117.153 37.64H114.813V43H112.013V29.04H117.153C118.233 29.04 119.153 29.2267 119.913 29.6C120.673 29.9733 121.239 30.4867 121.613 31.14C121.999 31.7933 122.193 32.5333 122.193 33.36ZM117.033 35.38C117.806 35.38 118.379 35.2067 118.753 34.86C119.126 34.5 119.313 34 119.313 33.36C119.313 32 118.553 31.32 117.033 31.32H114.813V35.38H117.033ZM126.981 31.3V34.8H131.681V37.02H126.981V40.72H132.281V43H124.181V29.02H132.281V31.3H126.981ZM137.685 40.64H143.965V43H134.445V40.84L140.685 31.4H134.445V29.04H143.965V31.2L137.685 40.64ZM154.909 40.34H149.349L148.429 43H145.489L150.509 29.02H153.769L158.789 43H155.829L154.909 40.34ZM154.149 38.1L152.129 32.26L150.109 38.1H154.149ZM167.865 43L164.785 37.56H163.465V43H160.665V29.04H165.905C166.985 29.04 167.905 29.2333 168.665 29.62C169.425 29.9933 169.992 30.5067 170.365 31.16C170.752 31.8 170.945 32.52 170.945 33.32C170.945 34.24 170.678 35.0733 170.145 35.82C169.612 36.5533 168.818 37.06 167.765 37.34L171.105 43H167.865ZM163.465 35.46H165.805C166.565 35.46 167.132 35.28 167.505 34.92C167.878 34.5467 168.065 34.0333 168.065 33.38C168.065 32.74 167.878 32.2467 167.505 31.9C167.132 31.54 166.565 31.36 165.805 31.36H163.465V35.46Z" fill="white"/>
</g>
<defs>
<clipPath id="clip0_1_50">
<rect width="204" height="72" rx="12" fill="white"/>
</clipPath>
</defs>
</svg>
