<svg width="20" height="24" viewBox="0 0 20 24" fill="none" xmlns="http://www.w3.org/2000/svg">
<path d="M10 0C10.7879 -2.8701e-08 11.568 0.15552 12.2959 0.457031C13.0239 0.758559 13.685 1.20066 14.2422 1.75781C14.7993 2.31496 15.2414 2.97615 15.543 3.7041C15.8445 4.43204 16 5.21209 16 6V10H17C18.6569 10 20 11.3431 20 13V21C20 22.6569 18.6569 24 17 24H3C1.34315 24 1.61066e-08 22.6569 0 21V13C1.28853e-07 11.3431 1.34315 10 3 10H4V6C4 5.21209 4.15552 4.43204 4.45703 3.7041C4.75856 2.97615 5.20066 2.31496 5.75781 1.75781C6.31496 1.20066 6.97615 0.758559 7.7041 0.457031C8.43204 0.15552 9.21209 3.44406e-08 10 0ZM10 14C9.44772 14 9 14.4477 9 15V19C9 19.5523 9.44772 20 10 20C10.5523 20 11 19.5523 11 19V15C11 14.4477 10.5523 14 10 14ZM10 2C9.47483 2 8.95494 2.10376 8.46973 2.30469C7.98442 2.50571 7.54331 2.80044 7.17188 3.17188C6.80044 3.54331 6.50571 3.98442 6.30469 4.46973C6.10376 4.95494 6 5.47483 6 6V10H14V6C14 5.47483 13.8962 4.95494 13.6953 4.46973C13.4943 3.98442 13.1996 3.54331 12.8281 3.17188C12.4567 2.80044 12.0156 2.50571 11.5303 2.30469C11.0451 2.10376 10.5252 2 10 2Z" fill="white"/>
</svg>
