<svg width="14" height="14" viewBox="0 0 14 14" fill="none" xmlns="http://www.w3.org/2000/svg">
<path d="M7 0C10.866 0 14 3.13401 14 7C14 10.866 10.866 14 7 14C3.13401 14 0 10.866 0 7C0 3.13401 3.13401 0 7 0ZM10.835 4.12793C10.6297 3.94324 10.3127 3.95984 10.1279 4.16504L6.01367 8.73535L3.88379 6.17969C3.70696 5.96783 3.39172 5.93951 3.17969 6.11621C2.96784 6.29304 2.93953 6.60828 3.11621 6.82031L5.61621 9.82031C5.70901 9.93151 5.84543 9.99716 5.99023 10C6.13524 10.0028 6.27503 9.94274 6.37207 9.83496L10.8721 4.83496C11.0568 4.62972 11.0402 4.31267 10.835 4.12793Z" fill="#FF6905"/>
</svg>
