<svg width="14" height="16" viewBox="0 0 14 16" fill="none" xmlns="http://www.w3.org/2000/svg">
<path d="M7 5.33333C6.48708 5.33333 5.98567 5.48973 5.55919 5.78275C5.13271 6.07576 4.80031 6.49224 4.60402 6.97951C4.40773 7.46678 4.35637 8.00296 4.45644 8.52024C4.55651 9.03752 4.8035 9.51268 5.1662 9.88562C5.52889 10.2586 5.99099 10.5125 6.49405 10.6154C6.99712 10.7183 7.51857 10.6655 7.99245 10.4637C8.46633 10.2618 8.87136 9.92005 9.15633 9.48152C9.44129 9.04299 9.59339 8.52742 9.59339 8C9.59339 7.29276 9.32016 6.61448 8.8338 6.11438C8.34745 5.61428 7.68781 5.33333 7 5.33333ZM7 9.33333C6.74354 9.33333 6.49284 9.25513 6.27959 9.10863C6.06635 8.96212 5.90015 8.75388 5.80201 8.51024C5.70387 8.26661 5.67819 7.99852 5.72822 7.73988C5.77825 7.48124 5.90175 7.24366 6.0831 7.05719C6.26444 6.87072 6.49549 6.74373 6.74703 6.69229C6.99856 6.64084 7.25928 6.66724 7.49622 6.76816C7.73316 6.86908 7.93568 7.03997 8.07816 7.25924C8.22065 7.47851 8.2967 7.73629 8.2967 8C8.2967 8.35362 8.16008 8.69276 7.9169 8.94281C7.67372 9.19286 7.3439 9.33333 7 9.33333Z" fill="#EA7B9C"/>
<path d="M7 5.33333C6.48708 5.33333 5.98567 5.48973 5.55919 5.78275C5.13271 6.07576 4.80031 6.49224 4.60402 6.97951C4.40773 7.46678 4.35637 8.00296 4.45644 8.52024C4.55651 9.03752 4.8035 9.51268 5.1662 9.88562C5.52889 10.2586 5.99099 10.5125 6.49405 10.6154C6.99712 10.7183 7.51857 10.6655 7.99245 10.4637C8.46633 10.2618 8.87136 9.92005 9.15633 9.48152C9.44129 9.04299 9.59339 8.52742 9.59339 8C9.59339 7.29276 9.32016 6.61448 8.8338 6.11438C8.34745 5.61428 7.68781 5.33333 7 5.33333ZM7 9.33333C6.74354 9.33333 6.49284 9.25513 6.27959 9.10863C6.06635 8.96212 5.90015 8.75388 5.80201 8.51024C5.70387 8.26661 5.67819 7.99852 5.72822 7.73988C5.77825 7.48124 5.90175 7.24366 6.0831 7.05719C6.26444 6.87072 6.49549 6.74373 6.74703 6.69229C6.99856 6.64084 7.25928 6.66724 7.49622 6.76816C7.73316 6.86908 7.93568 7.03997 8.07816 7.25924C8.22065 7.47851 8.2967 7.73629 8.2967 8C8.2967 8.35362 8.16008 8.69276 7.9169 8.94281C7.67372 9.19286 7.3439 9.33333 7 9.33333Z" fill="#816EB4"/>
<path d="M13.0257 9.26667L12.7379 9.096C12.8675 8.37096 12.8675 7.62771 12.7379 6.90267L13.0257 6.732C13.2471 6.60068 13.4412 6.42581 13.5968 6.21737C13.7525 6.00894 13.8666 5.77103 13.9329 5.51721C13.9991 5.2634 14.0161 4.99866 13.9828 4.73811C13.9495 4.47755 13.8666 4.22629 13.7389 3.99867C13.6112 3.77104 13.4411 3.57151 13.2384 3.41147C13.0357 3.25143 12.8044 3.134 12.5575 3.06591C12.3107 2.99781 12.0532 2.98037 11.7998 3.01459C11.5464 3.04881 11.3021 3.13401 11.0807 3.26533L10.7922 3.43667C10.2473 2.95795 9.62105 2.58683 8.94504 2.342V2C8.94504 1.46957 8.74012 0.960859 8.37535 0.585786C8.01059 0.210714 7.51586 0 7 0C6.48414 0 5.98941 0.210714 5.62465 0.585786C5.25988 0.960859 5.05496 1.46957 5.05496 2V2.342C4.37898 2.58771 3.75298 2.95973 3.20846 3.43933L2.91865 3.26667C2.47157 3.00145 1.94035 2.92971 1.44183 3.06724C0.943318 3.20477 0.518353 3.54029 0.260424 4C0.00249556 4.45971 -0.0672687 5.00595 0.066479 5.51855C0.200227 6.03114 0.52653 6.46812 0.973607 6.73333L1.26147 6.904C1.13187 7.62904 1.13187 8.3723 1.26147 9.09733L0.973607 9.268C0.52653 9.53322 0.200227 9.97019 0.066479 10.4828C-0.0672687 10.9954 0.00249556 11.5416 0.260424 12.0013C0.518353 12.461 0.943318 12.7966 1.44183 12.9341C1.94035 13.0716 2.47157 12.9999 2.91865 12.7347L3.20717 12.5633C3.75227 13.0421 4.37872 13.4132 5.05496 13.658V14C5.05496 14.5304 5.25988 15.0391 5.62465 15.4142C5.98941 15.7893 6.48414 16 7 16C7.51586 16 8.01059 15.7893 8.37535 15.4142C8.74012 15.0391 8.94504 14.5304 8.94504 14V13.658C9.62102 13.4123 10.247 13.0403 10.7915 12.5607L11.0813 12.7327C11.5284 12.9979 12.0597 13.0696 12.5582 12.9321C13.0567 12.7946 13.4816 12.459 13.7396 11.9993C13.9975 11.5396 14.0673 10.9934 13.9335 10.4808C13.7998 9.96819 13.4728 9.53188 13.0257 9.26667ZM11.3738 6.74933C11.5933 7.56738 11.5933 8.43129 11.3738 9.24933C11.3354 9.39171 11.3442 9.54316 11.3986 9.67987C11.4531 9.81659 11.5501 9.93084 11.6746 10.0047L12.3774 10.422C12.5264 10.5104 12.6351 10.6561 12.6797 10.8269C12.7243 10.9977 12.701 11.1798 12.615 11.333C12.529 11.4862 12.3874 11.598 12.2212 11.6438C12.0551 11.6897 11.878 11.6657 11.729 11.5773L11.0249 11.1587C10.9004 11.0845 10.7554 11.055 10.6128 11.075C10.4701 11.0949 10.338 11.163 10.2372 11.2687C9.66011 11.8744 8.9331 12.3067 8.13461 12.5187C7.99523 12.5555 7.87174 12.639 7.78359 12.7559C7.69543 12.8729 7.64763 13.0167 7.6477 13.1647V14C7.6477 14.1768 7.57939 14.3464 7.4578 14.4714C7.33621 14.5964 7.1713 14.6667 6.99935 14.6667C6.8274 14.6667 6.66249 14.5964 6.5409 14.4714C6.41931 14.3464 6.351 14.1768 6.351 14V13.1653C6.35107 13.0174 6.30327 12.8736 6.21511 12.7566C6.12696 12.6397 6.00347 12.5562 5.86409 12.5193C5.06556 12.3065 4.33875 11.8733 3.76215 11.2667C3.66135 11.161 3.52922 11.0929 3.3866 11.073C3.24397 11.053 3.09896 11.0825 2.97441 11.1567L2.2716 11.5747C2.19784 11.6191 2.11625 11.6482 2.03153 11.6601C1.94682 11.672 1.86065 11.6665 1.77798 11.6441C1.69532 11.6216 1.61779 11.5825 1.54987 11.5291C1.48195 11.4757 1.42497 11.409 1.38222 11.3329C1.33947 11.2567 1.31178 11.1727 1.30076 11.0855C1.28974 10.9983 1.2956 10.9097 1.318 10.8249C1.34041 10.74 1.37891 10.6606 1.4313 10.5911C1.48368 10.5216 1.54892 10.4635 1.62325 10.42L2.32606 10.0027C2.45051 9.92884 2.54758 9.81459 2.60204 9.67787C2.65649 9.54116 2.66523 9.38971 2.62689 9.24733C2.40734 8.42929 2.40734 7.56538 2.62689 6.74733C2.66454 6.60525 2.65538 6.45436 2.60084 6.31819C2.5463 6.18203 2.44945 6.06827 2.32541 5.99467L1.6226 5.57733C1.47361 5.48893 1.36487 5.34328 1.3203 5.17244C1.27574 5.00159 1.29901 4.81954 1.38498 4.66633C1.47096 4.51313 1.6126 4.40131 1.77875 4.35549C1.94491 4.30967 2.12195 4.33359 2.27095 4.422L2.97506 4.84067C3.09927 4.91501 3.24398 4.94481 3.38645 4.92538C3.52892 4.90595 3.66108 4.8384 3.76215 4.73333C4.33924 4.12756 5.06625 3.69535 5.86474 3.48333C6.00455 3.44638 6.12836 3.3625 6.21656 3.245C6.30476 3.1275 6.3523 2.98309 6.35165 2.83467V2C6.35165 1.82319 6.41996 1.65362 6.54155 1.5286C6.66314 1.40357 6.82805 1.33333 7 1.33333C7.17195 1.33333 7.33686 1.40357 7.45845 1.5286C7.58004 1.65362 7.64835 1.82319 7.64835 2V2.83467C7.64828 2.98264 7.69608 3.12643 7.78424 3.24339C7.87239 3.36034 7.99588 3.44382 8.13526 3.48067C8.93403 3.69343 9.66107 4.12659 10.2378 4.73333C10.3387 4.83898 10.4708 4.90713 10.6134 4.92704C10.756 4.94696 10.901 4.91751 11.0256 4.84333L11.7284 4.42533C11.8022 4.38087 11.8838 4.35185 11.9685 4.33993C12.0532 4.32802 12.1394 4.33346 12.222 4.35593C12.3047 4.37841 12.3822 4.41747 12.4501 4.47088C12.518 4.52428 12.575 4.59097 12.6178 4.66712C12.6605 4.74326 12.6882 4.82734 12.6992 4.91453C12.7103 5.00171 12.7044 5.09028 12.682 5.17513C12.6596 5.25998 12.6211 5.33943 12.5687 5.40892C12.5163 5.4784 12.4511 5.53654 12.3767 5.58L11.6739 5.99733C11.5501 6.07114 11.4536 6.18498 11.3993 6.32113C11.345 6.45727 11.336 6.6074 11.3738 6.74933Z" fill="#EA7B9C"/>
<path d="M13.0257 9.26667L12.7379 9.096C12.8675 8.37096 12.8675 7.62771 12.7379 6.90267L13.0257 6.732C13.2471 6.60068 13.4412 6.42581 13.5968 6.21737C13.7525 6.00894 13.8666 5.77103 13.9329 5.51721C13.9991 5.2634 14.0161 4.99866 13.9828 4.73811C13.9495 4.47755 13.8666 4.22629 13.7389 3.99867C13.6112 3.77104 13.4411 3.57151 13.2384 3.41147C13.0357 3.25143 12.8044 3.134 12.5575 3.06591C12.3107 2.99781 12.0532 2.98037 11.7998 3.01459C11.5464 3.04881 11.3021 3.13401 11.0807 3.26533L10.7922 3.43667C10.2473 2.95795 9.62105 2.58683 8.94504 2.342V2C8.94504 1.46957 8.74012 0.960859 8.37535 0.585786C8.01059 0.210714 7.51586 0 7 0C6.48414 0 5.98941 0.210714 5.62465 0.585786C5.25988 0.960859 5.05496 1.46957 5.05496 2V2.342C4.37898 2.58771 3.75298 2.95973 3.20846 3.43933L2.91865 3.26667C2.47157 3.00145 1.94035 2.92971 1.44183 3.06724C0.943318 3.20477 0.518353 3.54029 0.260424 4C0.00249556 4.45971 -0.0672687 5.00595 0.066479 5.51855C0.200227 6.03114 0.52653 6.46812 0.973607 6.73333L1.26147 6.904C1.13187 7.62904 1.13187 8.3723 1.26147 9.09733L0.973607 9.268C0.52653 9.53322 0.200227 9.97019 0.066479 10.4828C-0.0672687 10.9954 0.00249556 11.5416 0.260424 12.0013C0.518353 12.461 0.943318 12.7966 1.44183 12.9341C1.94035 13.0716 2.47157 12.9999 2.91865 12.7347L3.20717 12.5633C3.75227 13.0421 4.37872 13.4132 5.05496 13.658V14C5.05496 14.5304 5.25988 15.0391 5.62465 15.4142C5.98941 15.7893 6.48414 16 7 16C7.51586 16 8.01059 15.7893 8.37535 15.4142C8.74012 15.0391 8.94504 14.5304 8.94504 14V13.658C9.62102 13.4123 10.247 13.0403 10.7915 12.5607L11.0813 12.7327C11.5284 12.9979 12.0597 13.0696 12.5582 12.9321C13.0567 12.7946 13.4816 12.459 13.7396 11.9993C13.9975 11.5396 14.0673 10.9934 13.9335 10.4808C13.7998 9.96819 13.4728 9.53188 13.0257 9.26667ZM11.3738 6.74933C11.5933 7.56738 11.5933 8.43129 11.3738 9.24933C11.3354 9.39171 11.3442 9.54316 11.3986 9.67987C11.4531 9.81659 11.5501 9.93084 11.6746 10.0047L12.3774 10.422C12.5264 10.5104 12.6351 10.6561 12.6797 10.8269C12.7243 10.9977 12.701 11.1798 12.615 11.333C12.529 11.4862 12.3874 11.598 12.2212 11.6438C12.0551 11.6897 11.878 11.6657 11.729 11.5773L11.0249 11.1587C10.9004 11.0845 10.7554 11.055 10.6128 11.075C10.4701 11.0949 10.338 11.163 10.2372 11.2687C9.66011 11.8744 8.9331 12.3067 8.13461 12.5187C7.99523 12.5555 7.87174 12.639 7.78359 12.7559C7.69543 12.8729 7.64763 13.0167 7.6477 13.1647V14C7.6477 14.1768 7.57939 14.3464 7.4578 14.4714C7.33621 14.5964 7.1713 14.6667 6.99935 14.6667C6.8274 14.6667 6.66249 14.5964 6.5409 14.4714C6.41931 14.3464 6.351 14.1768 6.351 14V13.1653C6.35107 13.0174 6.30327 12.8736 6.21511 12.7566C6.12696 12.6397 6.00347 12.5562 5.86409 12.5193C5.06556 12.3065 4.33875 11.8733 3.76215 11.2667C3.66135 11.161 3.52922 11.0929 3.3866 11.073C3.24397 11.053 3.09896 11.0825 2.97441 11.1567L2.2716 11.5747C2.19784 11.6191 2.11625 11.6482 2.03153 11.6601C1.94682 11.672 1.86065 11.6665 1.77798 11.6441C1.69532 11.6216 1.61779 11.5825 1.54987 11.5291C1.48195 11.4757 1.42497 11.409 1.38222 11.3329C1.33947 11.2567 1.31178 11.1727 1.30076 11.0855C1.28974 10.9983 1.2956 10.9097 1.318 10.8249C1.34041 10.74 1.37891 10.6606 1.4313 10.5911C1.48368 10.5216 1.54892 10.4635 1.62325 10.42L2.32606 10.0027C2.45051 9.92884 2.54758 9.81459 2.60204 9.67787C2.65649 9.54116 2.66523 9.38971 2.62689 9.24733C2.40734 8.42929 2.40734 7.56538 2.62689 6.74733C2.66454 6.60525 2.65538 6.45436 2.60084 6.31819C2.5463 6.18203 2.44945 6.06827 2.32541 5.99467L1.6226 5.57733C1.47361 5.48893 1.36487 5.34328 1.3203 5.17244C1.27574 5.00159 1.29901 4.81954 1.38498 4.66633C1.47096 4.51313 1.6126 4.40131 1.77875 4.35549C1.94491 4.30967 2.12195 4.33359 2.27095 4.422L2.97506 4.84067C3.09927 4.91501 3.24398 4.94481 3.38645 4.92538C3.52892 4.90595 3.66108 4.8384 3.76215 4.73333C4.33924 4.12756 5.06625 3.69535 5.86474 3.48333C6.00455 3.44638 6.12836 3.3625 6.21656 3.245C6.30476 3.1275 6.3523 2.98309 6.35165 2.83467V2C6.35165 1.82319 6.41996 1.65362 6.54155 1.5286C6.66314 1.40357 6.82805 1.33333 7 1.33333C7.17195 1.33333 7.33686 1.40357 7.45845 1.5286C7.58004 1.65362 7.64835 1.82319 7.64835 2V2.83467C7.64828 2.98264 7.69608 3.12643 7.78424 3.24339C7.87239 3.36034 7.99588 3.44382 8.13526 3.48067C8.93403 3.69343 9.66107 4.12659 10.2378 4.73333C10.3387 4.83898 10.4708 4.90713 10.6134 4.92704C10.756 4.94696 10.901 4.91751 11.0256 4.84333L11.7284 4.42533C11.8022 4.38087 11.8838 4.35185 11.9685 4.33993C12.0532 4.32802 12.1394 4.33346 12.222 4.35593C12.3047 4.37841 12.3822 4.41747 12.4501 4.47088C12.518 4.52428 12.575 4.59097 12.6178 4.66712C12.6605 4.74326 12.6882 4.82734 12.6992 4.91453C12.7103 5.00171 12.7044 5.09028 12.682 5.17513C12.6596 5.25998 12.6211 5.33943 12.5687 5.40892C12.5163 5.4784 12.4511 5.53654 12.3767 5.58L11.6739 5.99733C11.5501 6.07114 11.4536 6.18498 11.3993 6.32113C11.345 6.45727 11.336 6.6074 11.3738 6.74933Z" fill="#816EB4"/>
<path fill-rule="evenodd" clip-rule="evenodd" d="M11.3738 6.74933C11.5933 7.56738 11.5933 8.43129 11.3738 9.24933C11.3354 9.39171 11.3442 9.54316 11.3986 9.67987C11.4531 9.81659 11.5501 9.93084 11.6746 10.0047L12.3774 10.422C12.5264 10.5104 12.6351 10.6561 12.6797 10.8269C12.7243 10.9977 12.701 11.1798 12.615 11.333C12.529 11.4862 12.3874 11.598 12.2212 11.6438C12.0551 11.6897 11.878 11.6657 11.729 11.5773L11.0249 11.1587C10.9004 11.0845 10.7554 11.055 10.6128 11.075C10.4701 11.0949 10.338 11.163 10.2372 11.2687C9.66011 11.8744 8.9331 12.3067 8.13461 12.5187C7.99523 12.5555 7.87174 12.639 7.78359 12.7559C7.69543 12.8729 7.64763 13.0167 7.6477 13.1647V14C7.6477 14.1768 7.57939 14.3464 7.4578 14.4714C7.33621 14.5964 7.1713 14.6667 6.99935 14.6667C6.8274 14.6667 6.66249 14.5964 6.5409 14.4714C6.41931 14.3464 6.351 14.1768 6.351 14V13.1653C6.35107 13.0174 6.30327 12.8736 6.21511 12.7566C6.12696 12.6397 6.00347 12.5562 5.86409 12.5193C5.06556 12.3065 4.33875 11.8733 3.76215 11.2667C3.66135 11.161 3.52922 11.0929 3.3866 11.073C3.24397 11.053 3.09896 11.0825 2.97441 11.1567L2.2716 11.5747C2.19784 11.6191 2.11625 11.6482 2.03153 11.6601C1.94682 11.672 1.86065 11.6665 1.77798 11.6441C1.69532 11.6216 1.61779 11.5825 1.54987 11.5291C1.48195 11.4757 1.42497 11.409 1.38222 11.3329C1.33947 11.2567 1.31178 11.1727 1.30076 11.0855C1.28974 10.9983 1.2956 10.9097 1.318 10.8249C1.34041 10.74 1.37891 10.6606 1.4313 10.5911C1.48368 10.5216 1.54892 10.4635 1.62325 10.42L2.32606 10.0027C2.45051 9.92884 2.54758 9.81459 2.60204 9.67787C2.65649 9.54116 2.66523 9.38971 2.62689 9.24733C2.40734 8.42929 2.40734 7.56538 2.62689 6.74733C2.66454 6.60525 2.65538 6.45436 2.60084 6.31819C2.5463 6.18203 2.44945 6.06827 2.32541 5.99467L1.6226 5.57733C1.47361 5.48893 1.36487 5.34328 1.3203 5.17244C1.27574 5.00159 1.29901 4.81954 1.38498 4.66633C1.47096 4.51313 1.6126 4.40131 1.77875 4.35549C1.94491 4.30967 2.12195 4.33359 2.27095 4.422L2.97506 4.84067C3.09927 4.91501 3.24398 4.94481 3.38645 4.92538C3.52892 4.90595 3.66108 4.8384 3.76215 4.73333C4.33924 4.12756 5.06625 3.69535 5.86474 3.48333C6.00455 3.44638 6.12836 3.3625 6.21656 3.245C6.30476 3.1275 6.3523 2.98309 6.35165 2.83467V2C6.35165 1.82319 6.41996 1.65362 6.54155 1.5286C6.66314 1.40357 6.82805 1.33333 7 1.33333C7.17195 1.33333 7.33686 1.40357 7.45845 1.5286C7.58004 1.65362 7.64835 1.82319 7.64835 2V2.83467C7.64828 2.98264 7.69608 3.12643 7.78424 3.24339C7.87239 3.36034 7.99588 3.44382 8.13526 3.48067C8.93403 3.69343 9.66107 4.12659 10.2378 4.73333C10.3387 4.83898 10.4708 4.90713 10.6134 4.92704C10.756 4.94696 10.901 4.91751 11.0256 4.84333L11.7284 4.42533C11.8022 4.38087 11.8838 4.35185 11.9685 4.33993C12.0532 4.32802 12.1394 4.33346 12.222 4.35593C12.3047 4.37841 12.3822 4.41747 12.4501 4.47088C12.518 4.52428 12.575 4.59097 12.6178 4.66712C12.6605 4.74326 12.6882 4.82734 12.6992 4.91453C12.7103 5.00171 12.7044 5.09028 12.682 5.17513C12.6596 5.25998 12.6211 5.33943 12.5687 5.40892C12.5163 5.4784 12.4511 5.53654 12.3767 5.58L11.6739 5.99733C11.5501 6.07114 11.4536 6.18498 11.3993 6.32113C11.345 6.45727 11.336 6.6074 11.3738 6.74933ZM5.55919 5.78275C5.98567 5.48973 6.48708 5.33333 7 5.33333C7.68781 5.33333 8.34745 5.61428 8.8338 6.11438C9.32016 6.61448 9.59339 7.29276 9.59339 8C9.59339 8.52742 9.44129 9.04299 9.15633 9.48152C8.87136 9.92005 8.46633 10.2618 7.99245 10.4637C7.51857 10.6655 6.99712 10.7183 6.49405 10.6154C5.99099 10.5125 5.52889 10.2586 5.1662 9.88562C4.8035 9.51268 4.55651 9.03752 4.45644 8.52024C4.35637 8.00296 4.40773 7.46678 4.60402 6.97951C4.80031 6.49224 5.13271 6.07576 5.55919 5.78275Z" fill="#EA7B9C"/>
</svg>
