<svg width="52" height="52" viewBox="0 0 52 52" fill="none" xmlns="http://www.w3.org/2000/svg">
<path d="M52 26C52 40.3594 40.3594 52 26 52C11.6406 52 0 40.3594 0 26C0 11.6406 11.6406 0 26 0C40.3594 0 52 11.6406 52 26Z" fill="#EA7B9C"/>
<path d="M27.0836 13.0567C26.4407 12.578 25.5594 12.578 24.9165 13.0567L10.4085 23.8619C9.00796 24.905 9.74577 27.1307 11.492 27.1308H13.8628C13.8592 27.1848 13.8569 27.2394 13.8569 27.2943V37.4884C13.8569 38.824 14.9398 39.9069 16.2755 39.907H21.7675V32.6547C21.7675 30.3171 23.6625 28.4222 26.0001 28.4222C28.3375 28.4223 30.2326 30.3172 30.2326 32.6547V39.907H35.724C37.0598 39.907 38.1426 38.8241 38.1426 37.4884V27.2943C38.1426 27.2394 38.1404 27.1848 38.1367 27.1308H40.5081C42.2543 27.1307 42.992 24.905 41.5916 23.8619L27.0836 13.0567Z" fill="#816EB4"/>
<path d="M26.0001 28.4222C28.3375 28.4223 30.2326 30.3172 30.2326 32.6547V39.907H21.7675V32.6547C21.7675 30.3171 23.6625 28.4222 26.0001 28.4222Z" fill="#FFE6EC"/>
</svg>
