<svg width="52" height="52" viewBox="0 0 52 52" fill="none" xmlns="http://www.w3.org/2000/svg">
<path d="M52 26C52 40.3594 40.3594 52 26 52C11.6406 52 0 40.3594 0 26C0 11.6406 11.6406 0 26 0C40.3594 0 52 11.6406 52 26Z" fill="#EA7B9C"/>
<path d="M26 30.6429C34.7342 30.6429 41.9844 36.9899 43.3935 45.3232C38.7863 49.4729 32.6887 52 26 52C19.311 52 13.2128 49.4732 8.60561 45.3232C10.0146 36.9899 17.2657 30.6429 26 30.6429Z" fill="#816EB4"/>
<path d="M35.2857 23.2143C35.2857 28.3426 31.1284 32.5 26 32.5C20.8716 32.5 16.7143 28.3426 16.7143 23.2143C16.7143 18.0859 20.8716 13.9286 26 13.9286C31.1284 13.9286 35.2857 18.0859 35.2857 23.2143Z" fill="#FFE6EC"/>
</svg>
